<svg width="25" height="59" viewBox="0 0 25 59" fill="none" xmlns="http://www.w3.org/2000/svg">
<path d="M2.82154 54.7697C2.6536 55.2958 2.94398 55.8585 3.47012 56.0264L12.044 58.763C12.5701 58.931 13.1328 58.6406 13.3007 58.1145C13.4686 57.5883 13.1782 57.0257 12.6521 56.8577L5.03091 54.4252L7.46346 46.804C7.6314 46.2779 7.34102 45.7152 6.81488 45.5473C6.28875 45.3793 5.7261 45.6697 5.55816 46.1958L2.82154 54.7697ZM0.145435 2.66083C10.5332 5.54931 19.3156 14.3741 21.5118 24.4539C22.6047 29.4701 22.0711 34.8049 19.2889 39.9173C16.5022 45.0378 11.4225 50.0012 3.31557 54.1851L4.2328 55.9624C12.6059 51.6412 18.0244 46.4247 21.0456 40.8734C24.0711 35.3139 24.6549 29.485 23.4659 24.0281C21.0984 13.1618 11.7204 3.80354 0.681237 0.733936L0.145435 2.66083Z" fill="white"/>
</svg>
